<?xml version="1.0" encoding="UTF-8"?>
<!DOCTYPE svg PUBLIC "-//W3C//DTD SVG 1.1//EN" "http://www.w3.org/Graphics/SVG/1.1/DTD/svg11.dtd">
<!-- Creator: CorelDRAW X7 -->
<svg xmlns="http://www.w3.org/2000/svg" xml:space="preserve" width="10mm" height="10mm" version="1.1" style="shape-rendering:geometricPrecision; text-rendering:geometricPrecision; image-rendering:optimizeQuality; fill-rule:evenodd; clip-rule:evenodd"
viewBox="0 0 1000 1000"
 xmlns:xlink="http://www.w3.org/1999/xlink">
 <defs>
  <style type="text/css">
   <![CDATA[
    .str2 {stroke:#2B2A29;stroke-width:17.64}
    .str0 {stroke:#2B2A29;stroke-width:17.64}
    .str1 {stroke:white;stroke-width:17.64}
    .fil1 {fill:#2B2A29}
    .fil0 {fill:#C32135}
    .fil2 {fill:white}
   ]]>
  </style>
 </defs>
 <g id="Warstwa_x0020_1">
  <metadata id="CorelCorpID_0Corel-Layer"/>
  <rect class="fil0 str0" transform="matrix(2.24764E-014 -0.893612 0.893612 2.24764E-014 273.75 957.87)" width="975" height="415" rx="67" ry="67"/>
  <circle class="fil1 str1" transform="matrix(2.51523E-014 -1 1 2.51523E-014 644.17 755.02)" r="84"/>
  <circle class="fil1 str1" transform="matrix(2.51523E-014 -1 1 2.51523E-014 644.17 274.36)" r="84"/>
  <circle class="fil2 str0" transform="matrix(2.51523E-014 -1 1 2.51523E-014 644.17 274.36)" r="44"/>
  <rect class="fil2 str0" transform="matrix(2.08691E-014 -0.829711 1 2.51523E-014 334.37 878.55)" width="181" height="170" rx="30" ry="30"/>
  <rect class="fil2 str2" transform="matrix(2.08691E-014 -0.829711 1 2.51523E-014 334.37 689.98)" width="181" height="170" rx="30" ry="30"/>
  <rect class="fil2 str2" transform="matrix(2.08691E-014 -0.829711 1 2.51523E-014 334.37 498.13)" width="181" height="170" rx="30" ry="30"/>
  <rect class="fil2 str2" transform="matrix(2.08691E-014 -0.829711 1 2.51523E-014 334.37 310.73)" width="181" height="170" rx="30" ry="30"/>
  <circle class="fil2 str0" transform="matrix(2.51523E-014 -1 1 2.51523E-014 644.17 755.02)" r="44"/>
  <ellipse class="fil1 str0" cx="412" cy="422" rx="44" ry="34"/>
 </g>
</svg>
