<?xml version="1.0" encoding="UTF-8"?>
<!DOCTYPE svg PUBLIC "-//W3C//DTD SVG 1.1//EN" "http://www.w3.org/Graphics/SVG/1.1/DTD/svg11.dtd">
<!-- Creator: CorelDRAW X7 -->
<svg xmlns="http://www.w3.org/2000/svg" xml:space="preserve" width="10mm" height="10mm" version="1.1" style="shape-rendering:geometricPrecision; text-rendering:geometricPrecision; image-rendering:optimizeQuality; fill-rule:evenodd; clip-rule:evenodd"
viewBox="0 0 1000 1000"
 xmlns:xlink="http://www.w3.org/1999/xlink">
 <defs>
  <style type="text/css">
   <![CDATA[
    .str2 {stroke:#2B2A29;stroke-width:17.64}
    .str0 {stroke:#2B2A29;stroke-width:17.64}
    .str1 {stroke:white;stroke-width:17.64}
    .fil1 {fill:#2B2A29}
    .fil0 {fill:#C32135}
    .fil2 {fill:white}
   ]]>
  </style>
 </defs>
 <g id="Warstwa_x0020_1">
  <metadata id="CorelCorpID_0Corel-Layer"/>
  <rect class="fil0 str0" transform="matrix(-7.04054E-014 0.893612 -0.893612 -7.04054E-014 727.95 87.01)" width="975" height="415" rx="67" ry="67"/>
  <circle class="fil1 str1" transform="matrix(-7.87875E-014 1 -1 -7.87875E-014 357.53 289.86)" r="84"/>
  <circle class="fil1 str1" transform="matrix(-7.87875E-014 1 -1 -7.87875E-014 357.53 770.52)" r="84"/>
  <circle class="fil2 str0" transform="matrix(-7.87875E-014 1 -1 -7.87875E-014 357.53 770.52)" r="44"/>
  <rect class="fil2 str0" transform="matrix(-6.53708E-014 0.829711 -1 -7.87875E-014 667.33 166.33)" width="181" height="170" rx="30" ry="30"/>
  <rect class="fil2 str2" transform="matrix(-6.53708E-014 0.829711 -1 -7.87875E-014 667.33 354.9)" width="181" height="170" rx="30" ry="30"/>
  <rect class="fil2 str2" transform="matrix(-6.53708E-014 0.829711 -1 -7.87875E-014 667.33 546.75)" width="181" height="170" rx="30" ry="30"/>
  <rect class="fil2 str2" transform="matrix(-6.53708E-014 0.829711 -1 -7.87875E-014 667.33 734.15)" width="181" height="170" rx="30" ry="30"/>
  <circle class="fil2 str0" transform="matrix(-7.87875E-014 1 -1 -7.87875E-014 357.53 289.86)" r="44"/>
  <ellipse class="fil1 str0" cx="590" cy="623" rx="44" ry="34"/>
 </g>
</svg>
