<?xml version="1.0" encoding="UTF-8"?>
<!DOCTYPE svg PUBLIC "-//W3C//DTD SVG 1.0//EN" "http://www.w3.org/TR/2001/REC-SVG-20010904/DTD/svg10.dtd">
<!-- Creator: CorelDRAW X7 -->
<svg xmlns="http://www.w3.org/2000/svg" xml:space="preserve" width="10mm" height="10mm" version="1.0" style="shape-rendering:geometricPrecision; text-rendering:geometricPrecision; image-rendering:optimizeQuality; fill-rule:evenodd; clip-rule:evenodd"
viewBox="0 0 1000 1000"
 xmlns:xlink="http://www.w3.org/1999/xlink">
 <defs>
  <style type="text/css">
   <![CDATA[
    .str0 {stroke:#2B2A29;stroke-width:7.62}
    .str1 {stroke:#FFED00;stroke-width:7.62}
    .fil0 {fill:#2B2A29}
    .fil1 {fill:#FFED00}
   ]]>
  </style>
 </defs>
 <g id="Warstwa_x0020_1">
  <metadata id="CorelCorpID_0Corel-Layer"/>
  <path class="fil0 str0" d="M490 663c85,0 155,-70 155,-156 0,-86 -70,-155 -155,-155 -86,0 -156,69 -156,155 0,86 70,156 156,156zm14 -94c43,-8 76,-28 88,-54 -7,51 -49,91 -101,91 -36,0 -68,-20 -86,-49 22,17 59,20 99,12zm30 -109c0,16 8,29 19,29 11,0 20,-13 20,-29 0,-16 -9,-29 -20,-29 -11,0 -19,13 -19,29zm-88 6c-12,0 -23,5 -27,11 -1,-2 -2,-10 -2,-12 0,-9 13,-17 29,-17 16,0 29,8 29,17 0,2 0,10 -1,12 -4,-6 -15,-11 -28,-11z"/>
  <path class="fil1 str1" d="M493 383c70,0 126,57 126,127 0,69 -56,126 -126,126 -70,0 -126,-57 -126,-126 0,-70 56,-127 126,-127z"/>
  <path class="fil0 str0" d="M532 461c0,16 9,29 19,29 11,0 20,-13 20,-29 0,-16 -9,-29 -20,-29 -10,0 -19,13 -19,29z"/>
  <path class="fil0 str0" d="M502 570c43,-8 76,-28 88,-54 -7,51 -49,91 -100,91 -37,0 -68,-20 -86,-49 21,17 59,20 98,12z"/>
  <g id="_910988624">
  </g>
  <g id="_910995280">
  </g>
  <g id="_910991760">
  </g>
  <g id="_910990000">
  </g>
  <g id="_910994160">
  </g>
  <g id="_910988368">
  </g>
  <g id="_910986640">
  </g>
  <g id="_910983280">
  </g>
  <g id="_910986544">
  </g>
  <g id="_910990064">
  </g>
  <g id="_910991824">
  </g>
  <g id="_910987088">
  </g>
  <g id="_910994832">
  </g>
  <g id="_910997040">
  </g>
  <g id="_910988912">
  </g>
  <path class="fil0 str0" d="M414 461c0,16 9,29 20,29 10,0 19,-13 19,-29 0,-16 -9,-29 -19,-29 -11,0 -20,13 -20,29z"/>
 </g>
</svg>
