<?xml version="1.0" encoding="UTF-8"?>
<!DOCTYPE svg PUBLIC "-//W3C//DTD SVG 1.1//EN" "http://www.w3.org/Graphics/SVG/1.1/DTD/svg11.dtd">
<!-- Creator: CorelDRAW X7 -->
<svg xmlns="http://www.w3.org/2000/svg" xml:space="preserve" width="10mm" height="10mm" version="1.1" style="shape-rendering:geometricPrecision; text-rendering:geometricPrecision; image-rendering:optimizeQuality; fill-rule:evenodd; clip-rule:evenodd"
viewBox="0 0 1000 1000"
 xmlns:xlink="http://www.w3.org/1999/xlink">
 <defs>
  <style type="text/css">
   <![CDATA[
    .str0 {stroke:black;stroke-width:17.64}
    .str1 {stroke:black;stroke-width:25;stroke-linejoin:round}
    .str2 {stroke:black;stroke-width:10;stroke-linecap:round}
    .fil1 {fill:none}
    .fil0 {fill:black}
   ]]>
  </style>
 </defs>
 <g id="Warstwa_x0020_1">
  <metadata id="CorelCorpID_0Corel-Layer"/>
  <rect class="fil0 str0" transform="matrix(1.14066 0.233114 -0.201128 1.32205 452.124 338.464)" width="115" height="217" rx="30" ry="30"/>
  <polyline class="fil1 str1" points="556,399 664,499 737,408 "/>
  <polyline class="fil1 str1" points="452,367 331,409 352,519 "/>
  <ellipse class="fil0 str0" cx="541" cy="248" rx="68" ry="79"/>
  <polyline class="fil1 str1" points="490,635 642,694 692,868 "/>
  <polyline class="fil1 str1" points="488,569 357,708 183,637 "/>
  <rect class="fil0 str0" transform="matrix(1.16259 0.671224 -0.671224 1.16259 191.538 617.187)" width="29.11" height="52.92" rx="50" ry="50"/>
  <rect class="fil0 str0" transform="matrix(0.347451 -1.2967 1.2967 0.347451 681.231 899.469)" width="29.11" height="52.92" rx="50" ry="50"/>
  <rect class="fil0 str0" transform="matrix(0.758012 -0.203109 0.203109 0.758012 344.111 521.847)" width="29.11" height="52.92" rx="50" ry="50"/>
  <line class="fil1 str2" x1="365" y1="513" x2="393" y2= "524" />
  <rect class="fil0 str0" transform="matrix(-0.450115 -0.642831 0.642831 -0.450115 741.491 419.514)" width="29.11" height="52.92" rx="50" ry="50"/>
  <line class="fil1 str2" x1="726" y1="403" x2="727" y2= "373" />
 </g>
</svg>
